<?xml version="1.0" standalone="no"?><!DOCTYPE svg PUBLIC "-//W3C//DTD SVG 1.1//EN" "http://www.w3.org/Graphics/SVG/1.1/DTD/svg11.dtd"><svg t="1743160219473" class="icon" viewBox="0 0 1024 1024" version="1.1" xmlns="http://www.w3.org/2000/svg" p-id="4589" xmlns:xlink="http://www.w3.org/1999/xlink" width="200" height="200"><path d="M102.357333 204.8A102.442667 102.442667 0 0 1 204.8 102.357333h102.4V0H204.8C91.733333 0 0 91.733333 0 204.8v102.4h102.357333V204.8zM102.357333 819.157333v-102.314666H0v102.314666A204.842667 204.842667 0 0 0 204.8 1024h102.4v-102.357333H204.8a102.528 102.528 0 0 1-102.442667-102.485334zM921.642667 819.114667a102.357333 102.357333 0 0 1-102.442667 102.357333h-102.4V1024h102.357333A204.8 204.8 0 0 0 1024 819.157333v-102.4h-102.357333v102.357334zM819.157333 0h-102.4v102.357333h102.357334A102.357333 102.357333 0 0 1 921.472 204.8v102.4H1024V204.8A204.8 204.8 0 0 0 819.157333 0zM205.141333 772.096c-3.328 16.512 1.578667 32.981333 11.434667 44.416 11.562667 13.141333 26.368 19.754667 42.794667 19.754667h505.258666c16.554667 0 33.109333-6.570667 42.794667-19.754667 9.856-13.141333 14.890667-27.989333 11.52-44.416a351.829333 351.829333 0 0 0-24.490667-82.261333 315.434667 315.434667 0 0 0-162.901333-163.029334 194.090667 194.090667 0 0 0 65.749333-146.432c0-79.018667-44.373333-148.138667-115.2-177.749333A163.626667 163.626667 0 0 0 512.896 187.818667c-102.016 0-184.32 85.546667-184.32 192.554666 0 55.936 24.618667 110.250667 65.749333 146.432-98.688 42.837333-171.136 136.618667-189.184 245.290667z" fill="#7F7F7F" p-id="4590"></path></svg>