<?xml version="1.0" standalone="no"?><!DOCTYPE svg PUBLIC "-//W3C//DTD SVG 1.1//EN" "http://www.w3.org/Graphics/SVG/1.1/DTD/svg11.dtd"><svg t="1742224155283" class="icon" viewBox="0 0 1024 1024" version="1.1" xmlns="http://www.w3.org/2000/svg" p-id="15313" xmlns:xlink="http://www.w3.org/1999/xlink" width="200" height="200"><path d="M874.030545 755.758545h-33.652363v-77.544727c0-43.147636-49.105455-79.453091-95.744-114.548363-16.244364-12.194909-38.725818-30.254545-47.104-38.725819V453.445818c8.378182-8.378182 30.859636-26.530909 47.104-38.725818 46.638545-35.095273 95.744-71.354182 95.744-114.501818V222.626909h33.652363c18.571636 0 33.605818-13.265455 33.605819-29.602909 0-16.384-15.034182-29.649455-33.605819-29.649455H336.151273c-18.571636 0-33.605818 13.265455-33.605818 29.649455 0 16.337455 15.034182 29.602909 33.605818 29.602909h33.605818V300.218182c0 43.147636 49.105455 79.406545 95.790545 114.501818 16.197818 12.194909 38.679273 30.301091 47.104 38.725818v71.493818c-8.378182 8.424727-30.906182 26.530909-47.104 38.725819-46.685091 35.095273-95.790545 71.400727-95.790545 114.501818v77.591272h-33.605818c-18.571636 0-33.605818 13.265455-33.605818 29.649455 0 16.337455 15.034182 29.602909 33.605818 29.602909h537.879272c18.571636 0 33.605818-13.265455 33.605819-29.602909 0-16.384-15.034182-29.649455-33.605819-29.649455z" fill="#515151" p-id="15314"></path><path d="M213.410909 877.707636c82.711273 23.970909 168.587636 35.933091 257.629091 35.933091 89.088 0 179.432727-11.962182 271.034182-35.933091C678.306909 975.220364 588.008727 1024 471.04 1024c-116.922182 0-202.798545-48.779636-257.629091-146.292364z" fill="#515151" p-id="15315"></path><path d="M602.484364 452.235636v10.565819c10.333091 10.24 38.027636 32.209455 57.995636 47.010909 57.390545 42.589091 117.853091 86.667636 117.853091 139.077818v94.208h41.425454c22.807273 0 41.332364 16.104727 41.332364 35.933091 0 19.874909-18.525091 35.979636-41.378909 35.979636H157.789091c-22.853818 0-41.378909-16.104727-41.378909-35.979636 0-19.828364 18.525091-35.933091 41.378909-35.933091h41.332364V648.843636c0-47.150545 48.965818-87.552 100.631272-126.231272l17.221818-12.846546c20.014545-14.801455 47.662545-36.770909 57.995637-47.010909v-10.565818h227.560727zM819.712 23.738182c22.853818 0 41.378909 16.104727 41.378909 35.979636 0 19.874909-18.525091 35.979636-41.378909 35.979637h-41.425455V189.905455c0 52.363636-60.416 96.442182-117.806545 139.077818-20.014545 14.801455-47.662545 36.770909-57.995636 47.010909v10.752H374.923636v-10.798546c-9.169455-9.076364-32.069818-27.461818-51.060363-41.797818l-6.888728-5.166545-17.221818-12.846546c-51.665455-38.679273-100.677818-79.127273-100.677818-126.231272V95.697455H157.789091C134.888727 95.697455 116.363636 79.592727 116.363636 59.717818 116.363636 39.842909 134.888727 23.738182 157.742545 23.738182z" fill="#515151" opacity=".803" p-id="15316"></path></svg>