<?xml version="1.0" standalone="no"?><!DOCTYPE svg PUBLIC "-//W3C//DTD SVG 1.1//EN" "http://www.w3.org/Graphics/SVG/1.1/DTD/svg11.dtd"><svg t="1742449881275" class="icon" viewBox="0 0 1024 1024" version="1.1" xmlns="http://www.w3.org/2000/svg" p-id="4711" xmlns:xlink="http://www.w3.org/1999/xlink" width="200" height="200"><path d="M785.92 0h-547.84C167.424 0 110.592 56.832 110.592 127.488v769.024c0 70.144 56.832 127.488 127.488 127.488h548.352c70.144 0 127.488-56.832 127.488-127.488V127.488c-0.512-70.656-57.344-127.488-128-127.488z m-77.312 156.672c26.624 0 44.032 17.92 44.032 44.032 0 28.672-18.944 44.032-45.568 44.032-25.6 0.512-43.008-15.36-43.008-44.032 0.512-27.648 20.48-44.032 44.544-44.032z m40.448 142.848v343.552c0 4.096-1.024 5.632-5.632 5.632h-68.096c-4.608 0-5.632-2.048-5.632-5.632l-0.512-343.552c0-4.096 1.024-5.632 5.632-5.632h68.608c3.584 0 5.632 1.024 5.632 5.632z m-511.488 342.528l123.904-433.152c2.048-7.168 4.096-14.848 4.608-36.352 0-3.584 1.024-4.608 4.096-4.608h91.136c3.584 0 4.608 1.024 5.632 4.608l138.752 470.016c1.024 4.096 0 5.632-4.096 5.632h-72.704c-4.096 0-5.632-1.024-6.656-4.096l-35.84-130.56H347.136L312.32 644.096c-1.024 4.096-2.048 4.608-6.656 4.608H242.176c-4.608 0-5.632-1.024-4.608-6.656z m293.888 280.064H281.6c-17.92 0-32.256-14.336-32.256-32.256s14.336-32.256 32.256-32.256h249.856c17.92 0 32.256 14.336 32.256 32.256s-14.336 32.256-32.256 32.256z m206.848-132.608H281.6c-17.92 0-32.256-14.336-32.256-32.256s14.336-32.256 32.256-32.256h456.704c17.92 0 32.256 14.336 32.256 32.256s-14.336 32.256-32.256 32.256z" fill="#515151" p-id="4712"></path><path d="M415.744 238.08H414.72c-9.216 51.2-32.256 137.216-51.2 204.288h103.936c-11.264-47.616-39.936-153.088-51.712-204.288z" fill="#515151" p-id="4713"></path></svg>