<?xml version="1.0" standalone="no"?><!DOCTYPE svg PUBLIC "-//W3C//DTD SVG 1.1//EN" "http://www.w3.org/Graphics/SVG/1.1/DTD/svg11.dtd"><svg t="1744553592830" class="icon" viewBox="0 0 1024 1024" version="1.1" xmlns="http://www.w3.org/2000/svg" p-id="4361" xmlns:xlink="http://www.w3.org/1999/xlink" width="200" height="200"><path d="M617.010659 213.950813c4.870938-12.458753 7.834432-25.910113 7.834432-40.099277 0-61.58052-49.91176-111.491257-111.48614-111.491257-61.574381 0-111.554702 49.91176-111.554702 111.491257 0 14.190187 2.963495 27.640524 7.840572 40.099277L146.560984 213.950813l0 745.004775 733.589794 0L880.150778 213.950813 617.010659 213.950813zM513.358951 103.879905c38.558178 0.063445 69.837578 31.342846 69.964468 69.970608 0 20.482497-8.945743 38.621623-23.199375 51.636031l-15.301498 13.82282 97.604992 109.205191-258.142292 0.063445 97.668437-109.268636-15.301498-13.82282c-14.373359-13.014408-23.319102-31.153534-23.319102-51.636031C443.450764 135.223774 474.731188 103.94335 513.358951 103.879905zM411.742599 255.534907l-120.375601 134.564765 443.920462-0.063445-30.913057-34.609239-89.398076-99.892081 223.652779 0 0 428.125731-274.000468-0.063445-40.289612-87.736227c-3.51915-7.65126-11.479449-12.458753-19.926842-12.028964-8.452509 0.429789-15.858176 5.983271-18.637476 14.007015l-54.725392 159.368684L372.810914 499.79605c-2.040473-9.06547-9.748015-15.60542-19.003819-16.161075-9.193383-0.555655-17.709337 5.060249-20.792559 13.754259L254.653841 716.854645l-66.571185 0L188.082656 255.534907 411.742599 255.534907zM188.081633 917.371494 188.081633 758.375294l81.260745 0c8.756431 0 16.533558-5.490038 19.554358-13.760398L348.063277 578.713424l58.617026 259.008009c2.034333 9.003048 9.868765 15.668865 19.12457 16.161075 0.372483 0 0.738827 0 1.112334 0 8.819876 0 16.71673-5.609765 19.61678-14.007015l61.700247-179.478697 24.184819 52.691059c3.39226 7.404644 10.734482 12.093433 18.877953 12.093433l287.331078 0 0 192.190207L188.081633 917.371494z" fill="#404040" p-id="4362"></path></svg>