<?xml version="1.0" standalone="no"?><!DOCTYPE svg PUBLIC "-//W3C//DTD SVG 1.1//EN" "http://www.w3.org/Graphics/SVG/1.1/DTD/svg11.dtd"><svg t="1745556116103" class="icon" viewBox="0 0 1024 1024" version="1.1" xmlns="http://www.w3.org/2000/svg" p-id="4276" xmlns:xlink="http://www.w3.org/1999/xlink" width="200" height="200"><path d="M451.725339 451.168661c6.645337-1.211592 12.788232-0.082888 14.824607 7.208155 6.911396 24.751681-15.053827 59.295359-35.410417 57.222145-58.909573 149.52111-172.198553 149.52418-231.10915-0.004094-20.083367 2.014886-42.318743-32.463301-35.407347-57.218051 1.999536-7.271599 8.17927-8.416677 14.786745-7.223504-5.917768-26.019555-8.988704-58.204517-3.345181-84.344822 24.159188-111.841004 223.547955-131.226478 234.645689-59.693424 53.842171 17.979454 56.606116 76.330303 41.015054 144.053595zM287.398041 782.628133c-30.02886-46.18888-47.771931-92.35934-57.334708-126.58784-8.715481 3.374857-19.04676 6.465236-30.223288 9.544357-28.340409 61.617236-22.273238 149.201839 1.304713 209.728233 18.781724-1.414206 34.716617 13.396075 34.716616 32.16245 0 17.821865-14.437798 32.263757-32.259663 32.263756-28.490834 0-42.77923-34.297062-23.229004-54.611696-24.425247-61.741056-31.299804-146.658928-8.336859-212.083879-43.125107 11.663621-89.631211 26.365432-105.108686 57.665236-23.924851 48.195579-42.589919 187.297406-46.467219 272.849726h590.295048c-3.885486-85.55232-22.584323-224.654147-46.510197-272.849726-14.514546-29.364736-56.335964-44.117712-97.04198-55.458992 3.457745 22.569996 1.455139 46.75886-4.071727 70.944654 28.959508 11.817116 46.88882 40.889187 41.091801 77.754743-7.872279 50.066179 2.996235 140.332862-61.216101 125.89711-14.745813-3.322669-9.713203-25.730983 5.03261-22.415478 14.517616 3.256154 20.967502-6.607475 24.384315-21.920198 4.916976-21.808658 4.995771-58.888084 9.10229-85.072391 9.642595-61.231451-72.234017-79.754279-89.747867-20.210257-7.369837 25.103697-23.230028 58.722309-28.187936 80.819539-3.453652 15.300444-1.841947 26.975321 12.634736 30.242731 14.787768 3.307319 9.717296 25.72382-5.028517 22.415477-64.134564-14.424495-15.863261-91.023928-1.463325-139.958332 10.602454-36.100124 39.671455-54.604533 70.97126-52.677651 5.684455-24.796706 7.48854-49.866635 1.728361-72.492913-15.433473-4.124939-29.800664-8.074893-41.322045-12.537523-8.449422 30.99179-28.265707 80.042851-57.875013 126.554072l-10.556406-58.991438 7.872279-19.010945-25.232634-21.218211-25.268449 21.218211 7.909117 19.010945-10.561522 59.02623zM630.571276 399.823352l-22.584323 71.195363 92.625399-54.038645c8.723668-5.085822 17.628461-7.036239 27.654794-6.068194a268.793349 268.793349 0 0 0 43.240741 0.670264c54.455131-3.528353 103.150082-23.499157 139.173458-53.974177 38.403582-32.514466 62.136051-77.065036 62.136051-125.949299 0-48.889379-23.731447-93.441995-62.136051-125.958508-39.818811-33.692289-95.167286-54.544158-156.649447-54.544158-61.473974-0.004093-116.822449 20.854939-156.64126 54.544158-38.403582 32.511396-62.136051 77.072199-62.136051 125.958508 0 48.884263 23.731447 93.438926 62.136051 125.949299a215.318543 215.318543 0 0 0 24.189887 17.672462c8.339929 5.254667 11.948099 15.147971 8.983587 24.544974l0.007164-0.002047z m-63.904322 99.877555l32.491954-102.446048c-57.640676-38.689083-94.629028-98.482792-94.629028-165.594148 0.004093-116.653604 111.715138-211.21714 249.502018-211.217141 137.794044 0 249.508158 94.563537 249.508159 211.217141 0 116.648487-111.714114 211.208954-249.508159 211.208954-11.400632 0-22.659024-0.648775-33.676939-1.908463l-131.336995 76.614782c-7.335044 4.244666-16.710557 1.747803-20.971596-5.577007a15.462126 15.462126 0 0 1-1.379414-12.29807z" fill="#4E6485" p-id="4277"></path></svg>