<?xml version="1.0" standalone="no"?><!DOCTYPE svg PUBLIC "-//W3C//DTD SVG 1.1//EN" "http://www.w3.org/Graphics/SVG/1.1/DTD/svg11.dtd"><svg t="1743074295662" class="icon" viewBox="0 0 1061 1024" version="1.1" xmlns="http://www.w3.org/2000/svg" p-id="4540" xmlns:xlink="http://www.w3.org/1999/xlink" width="207.2265625" height="200"><path d="M303.407 75.852A75.852 75.852 0 0 1 379.26 0h606.815a75.852 75.852 0 0 1 75.852 75.852v606.815a75.852 75.852 0 0 1-75.852 75.852H644.741a75.852 75.852 0 0 1-75.852-75.852v-189.63a37.926 37.926 0 1 1 75.852 0v189.63h341.333V75.852H379.26V189.63a37.926 37.926 0 1 1-75.852 0V75.852zM758.52 948.148A75.852 75.852 0 0 1 682.667 1024H75.852A75.852 75.852 0 0 1 0 948.148V341.333a75.852 75.852 0 0 1 75.852-75.852h341.333a75.852 75.852 0 0 1 75.852 75.852v189.63a37.926 37.926 0 1 1-75.852 0v-189.63H75.852v606.815h606.815V834.37a37.926 37.926 0 1 1 75.852 0v113.778z" fill="#515151" p-id="4541"></path></svg>