<?xml version="1.0" standalone="no"?><!DOCTYPE svg PUBLIC "-//W3C//DTD SVG 1.1//EN" "http://www.w3.org/Graphics/SVG/1.1/DTD/svg11.dtd"><svg t="1741333329267" class="icon" viewBox="0 0 1025 1024" version="1.1" xmlns="http://www.w3.org/2000/svg" p-id="2686" xmlns:xlink="http://www.w3.org/1999/xlink" width="200.1953125" height="200"><path d="M1015.905258 464.116427a162.866192 162.866192 0 0 1-47.837379 81.067925 118.680521 118.680521 0 0 1 9.494442 10.224783 161.770679 161.770679 0 0 1 36.517083 107.360225 215.450792 215.450792 0 0 1-42.359817 117.950179A180.029221 180.029221 0 0 1 876.41 857.770585a97.135442 97.135442 0 0 1-19.719225 2.921367 121.236717 121.236717 0 0 1-7.303417 45.646354 182.585417 182.585417 0 0 1-77.416216 90.927537 193.905712 193.905712 0 0 1-89.832025 24.831617 188.062979 188.062979 0 0 1-94.579246-18.258542A101.882662 101.882662 0 0 1 537.166296 914.006893V430.52071c36.517083 59.157675 13.511321 86.545487 203.034983 185.506783 78.146558 40.899133 78.146558-67.921775 36.517083-73.034166-120.141204-10.224783-239.917237-167.613412-239.917237-167.613413V106.979352A109.55125 109.55125 0 0 1 597.054312 8.018056a165.057217 165.057217 0 0 1 130.365988 12.415808A259.271292 259.271292 0 0 1 828.20745 110.63106a150.450383 150.450383 0 0 1 26.2923 98.596125v5.477563a146.068333 146.068333 0 0 1 92.02305 28.848495 216.546304 216.546304 0 0 1 69.382458 220.563184zM597.419483 9.478739zM483.486183 377.205768s-115.393983 157.388629-236.265529 167.613413c-41.264304 3.651708-41.629475 112.107446 36.517083 73.034167 190.984346-98.961296 193.905712-152.641408 199.018105-185.506784v483.486183a97.865783 97.865783 0 0 1-43.090159 89.466855 190.619175 190.619175 0 0 1-95.309587 18.258541A196.461908 196.461908 0 0 1 255.619583 997.631014a182.585417 182.585417 0 0 1-78.146558-90.927537 120.506375 120.506375 0 0 1-7.303417-45.646355 98.596125 98.596125 0 0 1-20.084396-2.921366 182.585417 182.585417 0 0 1-97.500612-77.051046 214.355279 214.355279 0 0 1-42.724988-117.950179 160.675167 160.675167 0 0 1 36.517084-107.360225 118.31535 118.31535 0 0 1 9.494441-10.224783 162.501021 162.501021 0 0 1-48.20255-81.067925A215.815962 215.815962 0 0 1 77.416217 242.09256a146.068333 146.068333 0 0 1 92.38822-28.848496v-5.477562A149.720042 149.720042 0 0 1 195.731567 110.63106 260.731975 260.731975 0 0 1 296.518717 23.355231a167.613412 167.613412 0 0 1 131.4615-12.415808 104.804029 104.804029 0 0 1 55.505966 98.961295v268.400563zM427.980217 9.84391z m55.505966 98.961296" fill="#b0e0f9" p-id="2687"></path></svg>